<?xml version="1.0" encoding="UTF-8"?>
<svg width="1280pt" height="1280pt" version="1.0" viewBox="0 0 1280 1280" xmlns="http://www.w3.org/2000/svg" xmlns:cc="http://creativecommons.org/ns#" xmlns:dc="http://purl.org/dc/elements/1.1/" xmlns:rdf="http://www.w3.org/1999/02/22-rdf-syntax-ns#">
 <metadata>Created by potrace 1.15, written by Peter Selinger 2001-2017
  <rdf:RDF>
   <cc:Work rdf:about="">
    <dc:format>image/svg+xml</dc:format>
    <dc:type rdf:resource="http://purl.org/dc/dcmitype/StillImage"/>
    <dc:title/>
   </cc:Work>
  </rdf:RDF>
 </metadata>
 <g transform="translate(0 1280) scale(.1 -.1)">
  <path d="m3300 11809-213-221 1118-1118-25-17c-61-43-205-163-312-260-278-252-546-592-737-935-164-295-293-629-366-948-78-342-95-515-95-1002v-378h3730 3730v378c0 460-16 641-81 942-179 829-645 1576-1319 2117-47 38-97 76-110 86l-25 17 1118 1118-213 221c-117 122-216 221-219 221s-280-277-616-616l-610-616-106 50c-293 140-643 250-954 301-236 39-319 45-595 45s-360-6-595-45c-313-51-736-188-1005-324l-46-24-615 615c-338 338-617 614-620 614s-102-99-219-221zm1665-2770c212-65 365-277 365-503 0-148-45-258-148-367-210-223-554-223-764 0-103 109-148 219-148 367 0 305 261 550 564 528 38-3 97-14 131-25zm3200 0c212-65 365-277 365-503 0-148-45-258-148-367-210-223-554-223-764 0-103 109-148 219-148 367 0 305 261 550 564 528 38-3 97-14 131-25z"/>
  <path d="m2670 5232c0-955 3-1197 15-1323 119-1239 843-2332 1940-2927 332-180 720-317 1101-387 429-79 919-79 1348 0 381 70 769 207 1101 387 1097 595 1821 1688 1940 2927 12 126 15 368 15 1323v1168h-3730-3730v-1168z"/>
 </g>
 <path transform="scale(.75)" d="m816.7 1633.1c-67.508-6.3484-123.93-21.924-182.09-50.27-129.46-63.096-225.22-180.42-261.51-320.41-14.364-55.411-14.008-49.724-14.845-237.26l-0.76227-170.77h991.68l-0.7623 170.77c-0.8264 185.14-0.6288 181.74-13.482 232.16-31.574 123.86-106.03 228.17-212.23 297.33-55.73 36.292-131.79 64.858-198.25 74.454-22.54 3.2549-89.302 5.7319-107.74 3.9976z" fill="#9fc" stroke="#00645a" stroke-width="32"/>
 <path transform="scale(.75)" d="m358.1 716.15c1.1571-49.531 3.0645-72.473 8.1113-97.566 17.443-86.729 58.195-168.6 117.05-235.16 17.043-19.274 56.306-55.524 72.11-66.577l7.5704-5.2943-148.97-149.06 24.25-25.248c13.337-13.886 26.134-26.44 28.437-27.897 3.0697-1.9416 25.844 18.95 85.329 78.272l81.142 80.92 19.809-9.1131c30.148-13.87 79.065-29.261 115.26-36.266 37.312-7.2205 117.91-8.7915 154.45-3.0105 41.904 6.6304 91.202 21.378 129.37 38.702l22.722 10.313 163.26-163.18 54.938 54.684-149.74 149.83 14.662 11.368c19.481 15.104 59.009 53.877 78.082 76.591 36.199 43.11 69.329 102.43 87.508 156.69 18.909 56.44 21.72 74.843 23.427 153.39l1.5734 72.377h-991.87zm304.18-78.477c14.156-3.9325 35.005-21.941 42.57-36.771 7.8579-15.403 7.9853-45.435 0.26422-62.267-11.897-25.935-35.76-40.962-65.226-41.074-28.383-0.10788-51.294 13.289-63.439 37.094-29.504 57.833 22.743 120.54 85.83 103.02zm426.64 0c14.156-3.9325 35.005-21.941 42.57-36.771 7.8579-15.403 7.9852-45.435 0.2642-62.267-11.897-25.935-35.76-40.962-65.226-41.074-28.383-0.10788-51.294 13.289-63.439 37.094-29.504 57.833 22.743 120.54 85.83 103.02z" fill="#9fc" stroke="#00645a" stroke-width="32"/>
</svg>
